<svg width="8" height="15" viewBox="0 0 8 15" fill="none" xmlns="http://www.w3.org/2000/svg">
<path d="M6.82968 14.9646C6.68028 14.9651 6.53267 14.9322 6.39769 14.8681C6.26271 14.8041 6.14379 14.7107 6.04968 14.5946L1.21968 8.59463C1.07259 8.4157 0.992188 8.19126 0.992188 7.95963C0.992188 7.72801 1.07259 7.50356 1.21968 7.32463L6.21968 1.32463C6.38941 1.12041 6.63333 0.99199 6.89775 0.96761C7.16218 0.943231 7.42546 1.02489 7.62968 1.19463C7.83389 1.36437 7.96232 1.60828 7.9867 1.87271C8.01108 2.13713 7.92941 2.40041 7.75968 2.60463L3.28968 7.96463L7.60967 13.3246C7.73196 13.4714 7.80964 13.6502 7.83351 13.8397C7.85739 14.0293 7.82648 14.2217 7.74442 14.3942C7.66237 14.5667 7.53261 14.7121 7.3705 14.8132C7.20838 14.9143 7.02071 14.9669 6.82968 14.9646Z" fill="white"/>
</svg>
