<svg width="71" height="21" viewBox="0 0 71 21" fill="none" xmlns="http://www.w3.org/2000/svg">
<path d="M0 1.32989H7.8452V4.54666H3.64304V8.85632H7.60629V12.0719H3.64304V20.242H0.000468737L0 1.32989Z" fill="white"/>
<path d="M18.4055 15.5103C18.4055 17.999 18.4055 19.4093 18.4438 20.242H14.9442C14.8742 19.812 14.833 19.3778 14.8208 18.9424C14.5585 19.4528 14.1486 19.8724 13.6443 20.1464C13.14 20.4204 12.5649 20.536 11.9939 20.4783C10.5263 20.4783 9.02622 19.7694 9.02622 16.6247V5.31629H12.6676V15.7629C12.6676 16.8003 12.9666 17.3263 13.6693 17.3263C14.4746 17.3263 14.7641 16.8003 14.7641 15.3775V5.31629H18.4055V15.5103Z" fill="white"/>
<path d="M20.5102 9.78971C20.5102 7.12328 20.4998 5.86711 20.4722 5.31629H23.9624C24.0295 5.73452 24.0707 6.15649 24.0859 6.57979C24.3677 6.09767 24.7775 5.70309 25.27 5.43991C25.7625 5.17673 26.3183 5.05525 26.8757 5.08897C28.8777 5.08897 29.9264 6.37208 29.9264 8.96927V20.242H26.285V9.73323C26.285 8.71714 25.97 8.24123 25.2939 8.24123C24.4702 8.24123 24.1516 8.7006 24.1516 10.1775V20.242H20.5102V9.78971Z" fill="white"/>
<path d="M32.654 4.54666H29.8999V1.32989H39.0578V4.54666H36.2862V20.242H32.654V4.54666Z" fill="white"/>
<path d="M48.4625 15.5103C48.4625 17.999 48.4626 19.4093 48.5006 20.242H45.001C44.931 19.812 44.8898 19.3778 44.8776 18.9424C44.6154 19.4528 44.2054 19.8724 43.7011 20.1464C43.1969 20.4204 42.6217 20.5361 42.0508 20.4783C40.5831 20.4783 39.083 19.7694 39.083 16.6247V5.31629H42.7247V15.7629C42.7247 16.8003 43.0234 17.3263 43.7261 17.3263C44.5314 17.3263 44.8211 16.8003 44.8211 15.3775V5.31629H48.4625V15.5103Z" fill="white"/>
<path d="M50.5682 0.5H54.2096V6.54411C54.4752 6.08213 54.8627 5.70205 55.3297 5.44541C55.7967 5.18878 56.3253 5.06547 56.8576 5.08897C59.0973 5.08897 59.9846 6.79317 59.9846 9.52552V14.9449C59.9846 18.163 59.448 20.4786 56.5185 20.4786C56.0007 20.5171 55.4839 20.3906 55.0424 20.1172C54.6009 19.8438 54.2573 19.4376 54.061 18.9568C54.0426 19.4747 54.0033 19.8937 53.9573 20.242H50.5385C50.5857 19.3441 50.5673 17.7105 50.5673 16.5222L50.5682 0.5ZM56.343 15.361V10.1359C56.343 9.01086 56.2128 8.24123 55.3311 8.24123C54.4414 8.24123 54.2096 8.90712 54.2096 10.2155V15.4342C54.2096 16.8083 54.5582 17.3275 55.2862 17.3275C55.9091 17.3263 56.343 16.8379 56.343 15.361Z" fill="white"/>
<path d="M65.1906 13.7125V15.8886C65.1906 16.8487 65.4155 17.5456 66.2369 17.5456C67.123 17.5456 67.2766 16.7944 67.2766 15.8402V15.5051H70.8039V15.7107C70.8982 16.3398 70.8474 16.9821 70.6553 17.5885C70.4632 18.1949 70.135 18.7493 69.6957 19.2094C69.2565 19.6694 68.7178 20.0229 68.1209 20.2428C67.524 20.4627 66.8848 20.5432 66.252 20.4781C62.4121 20.4781 61.5836 18.2987 61.5836 15.2322V10.1754C61.5004 9.52229 61.5608 8.85893 61.7605 8.23163C61.9603 7.60433 62.2947 7.02824 62.7403 6.54362C63.1859 6.05899 63.732 5.67754 64.3403 5.42591C64.9487 5.17429 65.6047 5.05857 66.2624 5.08684C69.4052 5.08684 70.8488 6.96425 70.8488 10.1567V13.7104L65.1906 13.7125ZM67.3409 11.1269V9.66045C67.3409 8.50896 67.0907 7.98271 66.2853 7.98271C65.5918 7.98271 65.2099 8.48225 65.2099 9.66045V11.1269H67.3409Z" fill="white"/>
</svg>
