<svg width="14" height="14" viewBox="0 0 14 14" fill="none" xmlns="http://www.w3.org/2000/svg">
<path d="M7.94031 7.04976L13.467 1.5231C13.5762 1.39556 13.6333 1.23151 13.6268 1.06373C13.6203 0.895946 13.5507 0.736787 13.432 0.618057C13.3133 0.499327 13.1541 0.429772 12.9863 0.423291C12.8186 0.41681 12.6545 0.473881 12.527 0.583099L7.00031 6.10976L1.47364 0.576432C1.34811 0.450896 1.17784 0.380371 1.00031 0.380371C0.822773 0.380371 0.65251 0.450896 0.526974 0.576432C0.401438 0.701968 0.330913 0.872231 0.330913 1.04977C0.330913 1.2273 0.401438 1.39756 0.526974 1.5231L6.06031 7.04976L0.526974 12.5764C0.457186 12.6362 0.400506 12.7097 0.360491 12.7925C0.320475 12.8752 0.297988 12.9652 0.294442 13.0571C0.290896 13.1489 0.306366 13.2404 0.339882 13.326C0.373399 13.4115 0.424238 13.4892 0.489208 13.5542C0.554177 13.6192 0.631876 13.67 0.717426 13.7035C0.802976 13.737 0.894531 13.7525 0.986343 13.749C1.07816 13.7454 1.16824 13.7229 1.25095 13.6829C1.33366 13.6429 1.40721 13.5862 1.46697 13.5164L7.00031 7.98976L12.527 13.5164C12.6545 13.6256 12.8186 13.6827 12.9863 13.6762C13.1541 13.6698 13.3133 13.6002 13.432 13.4815C13.5507 13.3627 13.6203 13.2036 13.6268 13.0358C13.6333 12.868 13.5762 12.704 13.467 12.5764L7.94031 7.04976Z" fill="#000"/>
</svg>
