<svg width="26" height="26" viewBox="0 0 26 26" fill="none" xmlns="http://www.w3.org/2000/svg">
<rect x="5.30273" y="3.0498" width="14" height="20.4" fill="white"/>
<path d="M21.3965 1.6123H4.20898C3.58738 1.6123 2.99124 1.85923 2.5517 2.29877C2.11216 2.73831 1.86523 3.33445 1.86523 3.95605L1.86523 21.1436C1.86523 21.7652 2.11216 22.3613 2.5517 22.8008C2.99124 23.2404 3.58738 23.4873 4.20898 23.4873H10.9106V16.0503H7.83447V12.5498H10.9106V9.88184C10.9106 6.84717 12.7173 5.1709 15.4844 5.1709C16.8096 5.1709 18.1953 5.40723 18.1953 5.40723V8.38574H16.6685C15.1641 8.38574 14.6948 9.31934 14.6948 10.2769V12.5498H18.0532L17.5161 16.0503H14.6948V23.4873H21.3965C22.0181 23.4873 22.6142 23.2404 23.0538 22.8008C23.4933 22.3613 23.7402 21.7652 23.7402 21.1436V3.95605C23.7402 3.33445 23.4933 2.73831 23.0538 2.29877C22.6142 1.85923 22.0181 1.6123 21.3965 1.6123Z" fill="#3351A0"/>
</svg>
