<svg width="21" height="17" viewBox="0 0 21 17" fill="none" xmlns="http://www.w3.org/2000/svg">
<path d="M20.3027 4.6578V12.7998C20.3028 13.6299 19.9852 14.4286 19.4151 15.032C18.8449 15.6354 18.0655 15.9978 17.2367 16.0448L17.0527 16.0498H3.55273C2.7226 16.0499 1.92391 15.7323 1.3205 15.1621C0.717101 14.592 0.354733 13.8126 0.307734 12.9838L0.302734 12.7998V4.6578L9.95473 9.7138C10.0621 9.77005 10.1815 9.79943 10.3027 9.79943C10.4239 9.79943 10.5434 9.77005 10.6507 9.7138L20.3027 4.6578ZM3.55273 0.0498047H17.0527C17.8583 0.0497077 18.6352 0.3488 19.2328 0.889072C19.8303 1.42934 20.2059 2.17229 20.2867 2.9738L10.3027 8.2038L0.318734 2.9738C0.396258 2.20412 0.745784 1.48732 1.30448 0.952268C1.86318 0.417213 2.59442 0.0989917 3.36673 0.0548048L3.55273 0.0498047H17.0527H3.55273Z" fill="white"/>
</svg>
